<svg width="228" height="228" viewBox="0 0 228 228" fill="none" xmlns="http://www.w3.org/2000/svg">
<path d="M212.751 140.592C212.758 150.121 210.92 159.415 207.279 168.212C203.631 177.024 198.367 184.896 191.641 191.629C184.895 198.368 177.015 203.625 168.217 207.266C159.432 210.901 150.158 212.751 140.656 212.751H140.602H140.589H140.307C125.085 212.751 109.976 207.789 97.7315 198.77C85.4061 189.691 76.1453 176.628 71.5383 161.547C69.4729 154.747 68.4268 147.713 68.4402 140.619V87.4093C68.4469 82.3398 70.4185 77.5788 74.0061 73.9913C77.5938 70.4104 82.3549 68.439 87.4112 68.4323C92.4741 68.4457 97.2353 70.4306 100.816 74.0047C104.39 77.5855 106.369 82.3465 106.382 87.4026V140.599C106.389 149.732 109.956 158.328 116.434 164.786C121.236 169.574 127.291 172.799 133.943 174.107C140.589 175.428 147.422 174.75 153.692 172.155C159.955 169.56 165.26 165.215 169.035 159.576C172.817 153.943 174.822 147.385 174.836 140.592V34.22C174.836 31.7188 175.319 29.2713 176.278 26.9578C177.23 24.6511 178.611 22.579 180.388 20.8087C182.159 19.0451 184.224 17.6571 186.538 16.6982C191.158 14.7938 196.422 14.787 201.049 16.6982C203.363 17.6571 205.428 19.0451 207.198 20.8087C208.969 22.579 210.35 24.6511 211.309 26.9578C212.268 29.2713 212.751 31.7188 212.751 34.22V140.592ZM63.2298 63.2086C56.7653 69.6728 53.1978 78.2695 53.1911 87.4026V193.781C53.1911 198.844 51.2195 203.605 47.6319 207.192C40.47 214.367 27.9702 214.367 20.8016 207.192C17.2207 203.605 15.2492 198.844 15.2492 193.781V87.4093C15.2626 70.1154 21.4923 53.3848 32.7918 40.2953C44.0979 27.2059 59.736 18.6093 76.8427 16.0745C80.3633 15.5515 83.8973 15.29 87.4179 15.29C101.011 15.29 114.422 19.139 126.024 26.4817C131.502 29.9485 136.445 34.1127 140.75 38.8335C140.79 38.7933 140.817 38.7464 140.857 38.7061L140.958 39.0883C148.032 46.9138 153.37 56.2481 156.475 66.4809L156.77 67.4533C158.654 73.9443 159.607 80.6567 159.613 87.4026V140.592C159.613 144.354 158.507 147.995 156.415 151.12C154.322 154.245 151.385 156.659 147.912 158.107C145.652 159.046 143.264 159.488 140.857 159.515V159.549C140.763 159.549 140.676 159.522 140.582 159.522C139.375 159.522 138.161 159.441 136.954 159.2C136.257 159.066 135.58 158.851 134.909 158.637V158.543C134.453 158.395 133.984 158.322 133.541 158.134C130.067 156.685 127.13 154.271 125.038 151.147C122.946 148.015 121.839 144.374 121.839 140.619V92.4452H121.826V87.3959C121.812 82.8561 120.927 78.4371 119.19 74.2662C117.447 70.0886 114.932 66.3468 111.72 63.1482C108.508 59.9563 104.753 57.4685 100.555 55.7452C96.3635 54.0218 91.9108 53.0965 87.4179 53.1769C78.2845 53.1836 69.6942 56.751 63.2298 63.2086ZM217.961 10.0395C211.497 3.58192 202.913 0.0212097 193.787 0.00779724H193.773C184.646 0.0346069 176.07 3.60202 169.619 10.0596C163.181 16.5171 159.627 25.0936 159.613 34.22V38.0624C149.997 24.014 136.438 13.0168 120.491 6.49889C100.622 -1.60155 78.5326 -2.15813 58.2674 4.9901C41.1406 11.0654 26.5419 22.1163 16.0539 36.9492C5.56588 51.7888 0.0134118 69.237 0 87.4026V193.781C0 202.921 3.56082 211.511 10.0253 217.975C16.4831 224.439 25.08 228 34.2201 228C43.3602 228 51.9505 224.439 58.4149 217.975C64.8794 211.511 68.4402 202.921 68.4402 193.781V189.966C78.0632 204.007 91.6091 215.004 107.556 221.509C127.412 229.609 149.494 230.139 169.753 223.011C186.873 216.942 201.458 205.885 211.953 191.052C222.434 176.212 227.987 158.778 228 140.619V34.2133C227.987 25.0869 224.419 16.5037 217.961 10.0395Z" fill="url(#paint0_linear_1_3529)"/>
<defs>
<linearGradient id="paint0_linear_1_3529" x1="-10.0588" y1="226.315" x2="226.693" y2="-27.3161" gradientUnits="userSpaceOnUse">
<stop offset="0.05" stop-color="white"/>
<stop offset="0.38" stop-color="#A7B3FF"/>
<stop offset="1" stop-color="#74A4FF"/>
</linearGradient>
</defs>
</svg>
